{"title":"The Water Diviner (2014) DVDRip XviD-MAXSPEED","uid":11761242,"size":1631301221,"categoryP":"video","categoryS":"movies","magnet":"?xt=urn:btih:62be57fd8c5d1f15be3de843ea0aff00710714e4&amp;dn=The+Water+Diviner+%282014%29+DVDRip+XviD-MAXSPEED&amp;tr=udp%3A%2F%2Ftracker.openbittorrent.com%3A80&amp;tr=udp%3A%2F%2Fopen.demonii.com%3A1337&amp;tr=udp%3A%2F%2Ftracker.coppersurfer.tk%3A6969&amp;tr=udp%3A%2F%2Fexodus.desync.com%3A6969","seeders":22,"leechers":4,"uploader":"extremezone","files":4,"time":1426592233,"description":" &lt;a href=&quot;http://fs1.directupload.net/images/150317/klbcxxz3.jpg&quot; rel=&quot;nofollow&quot; target=&quot;_NEW&quot;&gt;http://fs1.directupload.net/images/150317/klbcxxz3.jpg&lt;/a&gt;\n\nScreens:\n &lt;a href=&quot;\nhttp://fs2.directupload.net/images/150317/wifvx86q.jpg&quot; rel=&quot;nofollow&quot; target=&quot;_NEW&quot;&gt;\nhttp://fs2.directupload.net/images/150317/wifvx86q.jpg&lt;/a&gt; &lt;a href=&quot;\nhttp://fs1.directupload.net/images/150317/cwpdkh5x.jpg&quot; rel=&quot;nofollow&quot; target=&quot;_NEW&quot;&gt;\nhttp://fs1.directupload.net/images/150317/cwpdkh5x.jpg&lt;/a&gt; &lt;a href=&quot;\nhttp://fs1.directupload.net/images/150317/jjj4fsa2.jpg&quot; rel=&quot;nofollow&quot; target=&quot;_NEW&quot;&gt;\nhttp://fs1.directupload.net/images/150317/jjj4fsa2.jpg&lt;/a&gt; &lt;a href=&quot;\nhttp://fs1.directupload.net/images/150317/6umdr8bn.jpg&quot; rel=&quot;nofollow&quot; target=&quot;_NEW&quot;&gt;\nhttp://fs1.directupload.net/images/150317/6umdr8bn.jpg&lt;/a&gt;\n\nScreenCaps:\n &lt;a href=&quot;\nhttp://fs1.directupload.net/images/150317/8awp34jc.jpg&quot; rel=&quot;nofollow&quot; target=&quot;_NEW&quot;&gt;\nhttp://fs1.directupload.net/images/150317/8awp34jc.jpg&lt;/a&gt;\n\nThe Water Diviner (2014) DVDRip XviD-MAXSPEED\nFormat                                   : AVI\nFormat/Info                              : Audio Video Interleave\nFormat profile                           : OpenDML\nFormat settings                          : rec\nFile size                                : 1.51 GiB\nDuration                                 : 1h 51mn\nOverall bit rate                         : 1 949 Kbps\nWriting application                      : VirtualDubMod 1.5.10.2 (build 2542/release)\nWriting library                          : VirtualDubMod build 2542/release\nOriginal source form                     : MAX TORRENTZ\nCopyright                                : SIGISMUNT\n\nVideo\nID                                       : 0\nFormat                                   : MPEG-4 Visual\nFormat profile                           : Advanced Simple@L5\nFormat settings, BVOP                    : 2\nFormat settings, QPel                    : No\nFormat settings, GMC                     : No warppoints\nFormat settings, Matrix                  : Default (MPEG)\nCodec ID                                 : XVID\nCodec ID/Hint                            : XviD\nDuration                                 : 1h 51mn\nBit rate                                 : 1 495 Kbps\nWidth                                    : 720 pixels\nHeight                                   : 304 pixels\nDisplay aspect ratio                     : 2.35:1\nFrame rate                               : 24.000 fps\nColor space                              : YUV\nChroma subsampling                       : 4:2:0\nBit depth                                : 8 bits\nScan type                                : Progressive\nCompression mode                         : Lossy\nBits/(Pixel*Frame)                       : 0.285\nStream size                              : 1.16 GiB (77%)\nWriting library                          : XviD 1.2.1 (UTC 2008-12-04)\n\nAudio\nID                                       : 1\nFormat                                   : AC-3\nFormat/Info                              : Audio Coding 3\nMode extension                           : CM (complete main)\nFormat settings, Endianness              : Big\nCodec ID                                 : 2000\nDuration                                 : 1h 51mn\nBit rate mode                            : Constant\nBit rate                                 : 448 Kbps\nChannel(s)                               : 6 channels\nChannel positions                        : Front: L C R, Side: L R, LFE\nSampling rate                            : 48.0 KHz\nBit depth                                : 16 bits\nCompression mode                         : Lossy\nStream size                              : 356 MiB (23%)\nAlignment                                : Aligned on interleaves\nInterleave, duration                     : 64 ms (1.54 video frames)\nInterleave, preload duration             : 192 ms\n\nSource: DVD (perfect a/v/sync quality,sample included, english hardcoded for turk parts)\nThis torrent is not seedbox supported,please seed it to the MAX\n\nUploader Note: If you think image it's a little dark then VLC-&gt;Ctrl+E-&gt;Video Effects-&gt;\n-&gt;Image adjust-&gt;Brightness-&gt;Close, simple as 1,2,3 so no complaints about this please,thanks\n\nNote: If you have something as early releases, seedboxes &lt;a href=&quot; http://torentz.3xforum.ro&quot; rel=&quot;nofollow&quot; target=&quot;_NEW&quot;&gt; http://torentz.3xforum.ro&lt;/a&gt;\n\nHow To Get Your MAXSPEED (uTorrent)\n\nTorrent Client - Preferences - Bandwidth - Number of connections - Set aprox. 500 for each\nTorrent Client - Preferences - BiTorrent - Protocol Encryption - Forced\nBandwidth Allocation - High (Set download/upload limit - Unlimited)\nStop Other Active Torrents - Start downloading and wait for connections.\nEnjoy and Seed for at least 1:1 ratio. Don't forget to say thanks/leave reviews.\nIf screens/Caps image host is dead googlesearch &quot;release name&quot;+&quot;screens&quot; or &quot;sample&quot;.\nGreets to all actual/future p2p/scene QUALITY groups and affiliate websites.\nDon't trust IMDb robot or bad ratings,always watch some trailers first.\nIgnore stupid comments/fake/mislabeled/no-DVDrips/CAM/TS/RAR uploads.\nPlease spread this release/torrent to your friends/forums/etc.\nIf you need translation subs visit some subtitles sites.\nReport if you see online streaming or other spam links.\nRecommended movie player VLC PLAYER","torrent":{"xt":"urn:btih:62be57fd8c5d1f15be3de843ea0aff00710714e4","amp;dn":"The+Water+Diviner+%282014%29+DVDRip+XviD-MAXSPEED","amp;tr":["udp%3A%2F%2Ftracker.openbittorrent.com%3A80","udp%3A%2F%2Fopen.demonii.com%3A1337","udp%3A%2F%2Ftracker.coppersurfer.tk%3A6969","udp%3A%2F%2Fexodus.desync.com%3A6969"],"infoHash":"62be57fd8c5d1f15be3de843ea0aff00710714e4","infoHashBuffer":{"type":"Buffer","data":[98,190,87,253,140,93,31,21,190,61,232,67,234,10,255,0,113,7,20,228]},"announce":[],"urlList":[]}}